<svg width="24" xmlns="http://www.w3.org/2000/svg" height="24" viewBox="0 0 24 24">
    <path fill="#3498db" fill-rule="evenodd" d="m21.521,10.146c-.41-.059-.846-.428-.973-.82l-.609-1.481c-.191-.365-.146-.935 .1-1.264l.99-1.318c.246-.33 .227-.854-.047-1.162l-1.084-1.086c-.309-.272-.832-.293-1.164-.045l-1.316,.988c-.33,.248-.898,.293-1.264,.101l-1.48-.609c-.395-.126-.764-.562-.82-.971l-.234-1.629c-.057-.409-.441-.778-.85-.822 0,0-.255-.026-.77-.026-.514,0-.769,.026-.769,.026-.41,.044-.794,.413-.852,.822l-.233,1.629c-.058,.409-.427,.845-.82,.971l-1.48,.609c-.366,.191-.934,.147-1.264-.101l-1.318-.989c-.33-.248-.854-.228-1.163,.045l-1.084,1.086c-.272,.309-.294,.832-.046,1.162l.988,1.318c.249,.33 .293,.899 .102,1.264l-.611,1.482c-.125,.393-.562,.762-.971,.82l-1.629,.231c-.408,.059-.777,.442-.82,.853 0,0-.027,.255-.027,.77 0,.515 .027,.77 .027,.77 .043,.411 .412,.793 .82,.852l1.629,.232c.408,.059 .846,.428 .971,.82l.611,1.48c.191,.365 .146,.936-.102,1.264l-.988,1.318c-.248,.33-.308,.779-.132,.994 .175,.217 .677,.752 .678,.754 .001,.002 .171,.156 .375,.344 .204,.188 1.042,.449 1.372,.203l1.317-.99c.33-.246 .898-.293 1.264-.1l1.48,.609c.394,.125 .763,.562 .82,.971l.233,1.629c.058,.408 .441,.779 .852,.822 0,0 .255,.027 .769,.027 .515,0 .77-.027 .77-.027 .409-.043 .793-.414 .85-.822l.234-1.629c.057-.408 .426-.846 .82-.971l1.48-.611c.365-.191 .934-.146 1.264,.102l1.318,.99c.332,.246 .854,.227 1.164-.047l1.082-1.084c.273-.311 .293-.834 .047-1.164l-.99-1.318c-.246-.328-.291-.898-.1-1.264l.609-1.48c.127-.393 .562-.762 .973-.82l1.627-.232c.41-.059 .779-.441 .822-.852 0,0 .027-.255 .027-.77 0-.515-.027-.77-.027-.77-.043-.41-.412-.794-.822-.853l-1.626-.231zm-9.521,4.854c-1.657,0-3-1.344-3-3 0-1.657 1.343-3 3-3 1.657,0 3,1.344 3,3 0,1.656-1.344,3-3,3z"/>
</svg>
