<svg width="500" xmlns="http://www.w3.org/2000/svg" height="500" viewBox="0 0 500 500">
    <path fill="#f1c40f" fill-rule="evenodd" d="m177.317,104.632c0,40.158 32.525,72.685 72.683,72.685 40.158,0 72.685-32.527 72.685-72.685 0-40.158-32.526-72.683-72.685-72.683-40.158,0-72.683,32.525-72.683,72.683zm0,154.454v163.538h-22.715c-12.536,0-22.713,10.175-22.713,22.716 0,12.536 10.177,22.711 22.713,22.711h190.794c12.537,0 22.717-10.175 22.717-22.711 0-12.541-10.18-22.716-22.717-22.716h-22.711v-188.976c0-11.083-8.91-19.991-19.991-19.991h-148.092c-12.536,0-22.713,10.177-22.713,22.713 0,12.538 10.177,22.715 22.713,22.715h22.715z"/>
</svg>
