<svg width="512" xmlns="http://www.w3.org/2000/svg" height="512" viewBox="0 0 512 512">
    <path fill="#f1c40f" d="m408.207,150.644c-12.984,12.954-33.993,12.954-46.979,0-12.955-12.955-12.955-33.995 0-46.981l93.931-93.931c12.986-12.955 33.995-12.955 46.981,0 12.954,12.955 12.954,33.995 0,46.98l-93.933,93.932zm-152.336,361.083-127.863-127.864h-95.898c-17.669,0-31.966-14.299-31.966-31.967v-191.794c0-17.668 14.297-31.966 31.966-31.966h95.897l127.864-127.864c0,0 31.966-3.996 31.966,31.966 0,191.233 0,478.926 0,447.522 0,35.962-31.966,31.967-31.966,31.967zm-31.966-383.591-63.932,63.932h-95.897v127.864h95.896l63.932,63.933v-255.729zm159.829,159.829c-17.669,0-31.966-14.297-31.966-31.966 0-17.668 14.297-31.966 31.966-31.966h95.897c17.669,0 31.966,14.298 31.966,31.966 0,17.669-14.297,31.966-31.966,31.966h-95.897zm24.473,73.39 93.933,93.931c12.954,12.986 12.954,34.026 0,46.98-12.986,12.955-33.995,12.955-46.981,0l-93.931-93.931c-12.955-12.986-12.955-34.025 0-46.98 12.986-12.955 33.995-12.955 46.979,0z"/>
</svg>
