<svg width="141.73199" xmlns="http://www.w3.org/2000/svg" height="141.73199" viewBox="0 0 141.732 141.732">
    <g fill="#27af60">
        <path d="m91.192,59.623v-37.677c.043-.534 .068-1.073 .068-1.618 .002-11.226-9.099-20.328-20.325-20.328-11.229,0-20.33,9.104-20.33,20.328 0,.545 .024,1.084 .066,1.618v37.677c-.042,.535-.066,1.073-.066,1.621 0,11.229 9.103,20.326 20.329,20.326 11.227,0 20.327-9.1 20.327-20.326 .001-.548-.026-1.086-.069-1.621m29.75-9.404c0-3.084-2.5-5.584-5.584-5.584-3.082,0-5.582,2.5-5.582,5.584 0,.047 .004,.092 .008,.139-.076,21.43-17.471,38.779-38.917,38.779-21.448,0-38.842-17.353-38.917-38.779 .002-.047 .008-.092 .008-.139 0-3.084-2.5-5.584-5.584-5.584-3.084,0-5.585,2.5-5.585,5.584 0,25.714 19.388,46.896 44.339,49.743v28.648h-26.348c-2.96,0-5.358,2.402-5.358,5.361 0,2.961 2.398,5.355 5.358,5.355h26.35 11.61 26.35c2.959,0 5.357-2.396 5.357-5.355 0-2.959-2.398-5.361-5.357-5.361h-26.35v-28.665c24.888-2.906 44.202-24.06 44.202-49.726"/>
    </g>
</svg>
