<svg width="500" xmlns="http://www.w3.org/2000/svg" height="500" viewBox="0 0 500 500">
    <path fill="#c0392b" fill-rule="evenodd" d="m36.992,281.798c0,102.851 83.406,186.253 186.251,186.253 102.849,0 186.251-83.402 186.251-186.253 0-35.16-15.082-79.861-27.254-98.847-10.543-16.263-14.181-26.712-14.181-41.976 0-31.799 33.529-63.599 68.693-63.599h4.543c12.536,0 22.711-10.177 22.711-22.713 0-12.536-10.175-22.713-22.711-22.713h-4.543c-55.881,0-103.669,29.803-115.024,90.853-23.267-17.624-59.419-27.254-98.486-27.254-102.844-.001-186.25,83.404-186.25,186.249zm163.538,0c0-12.536 10.177-22.712 22.713-22.712 12.536,0 22.713,10.176 22.713,22.712 0,12.54-10.177,22.715-22.713,22.715-12.536,0-22.713-10.175-22.713-22.715zm-118.112,0c0-22.624 18.26-40.884 40.884-40.884 22.625,0 40.886,18.26 40.886,40.884 0,22.627-18.26,40.887-40.886,40.887-22.623,0-40.884-18.26-40.884-40.887zm199.88,0c0-22.624 18.26-40.884 40.887-40.884 22.624,0 40.885,18.26 40.885,40.884 0,22.627-18.261,40.887-40.885,40.887-22.627,0-40.887-18.26-40.887-40.887zm-99.94,99.943c0-22.628 18.26-40.889 40.886-40.889 22.626,0 40.885,18.261 40.885,40.889 0,22.623-18.26,40.883-40.885,40.883-22.625,0-40.886-18.26-40.886-40.883zm0-199.883c0-22.624 18.26-40.883 40.886-40.883 22.626,0 40.885,18.26 40.885,40.883 0,22.625-18.26,40.886-40.885,40.886-22.625,0-40.886-18.261-40.886-40.886z"/>
</svg>
